<?xml version="1.0" encoding="UTF-8" standalone="no"?>
<!-- Created with Inkscape (http://www.inkscape.org/) -->

<svg
   width="1080"
   height="1080"
   viewBox="0 0 285.74999 285.75"
   version="1.1"
   id="svg5"
   xml:space="preserve"
   inkscape:export-filename="linkingdev.v2.svg"
   inkscape:export-xdpi="96"
   inkscape:export-ydpi="96"
   sodipodi:docname="linkingdev.v2.svg"
   inkscape:version="1.2.2 (732a01da63, 2022-12-09)"
   xmlns:inkscape="http://www.inkscape.org/namespaces/inkscape"
   xmlns:sodipodi="http://sodipodi.sourceforge.net/DTD/sodipodi-0.dtd"
   xmlns="http://www.w3.org/2000/svg"
   xmlns:svg="http://www.w3.org/2000/svg"><sodipodi:namedview
     id="namedview7"
     pagecolor="#505050"
     bordercolor="#eeeeee"
     borderopacity="1"
     inkscape:showpageshadow="0"
     inkscape:pageopacity="0"
     inkscape:pagecheckerboard="0"
     inkscape:deskcolor="#505050"
     inkscape:document-units="mm"
     showgrid="false"
     inkscape:zoom="0.48611111"
     inkscape:cx="355.88572"
     inkscape:cy="448.45714"
     inkscape:window-width="1366"
     inkscape:window-height="705"
     inkscape:window-x="-8"
     inkscape:window-y="-8"
     inkscape:window-maximized="1"
     inkscape:current-layer="svg5" /><defs
     id="defs2" /><path
     id="rect548"
     style="fill:#e6e6e6;stroke-width:0.264664"
     d="M 109.0135,0.00361735 V 71.505196 l 12.87828,0.09457 c 5.01454,0.03684 9.28452,0.0674 12.95322,0.10387 3.6687,0.03647 6.73603,0.07905 9.34465,0.138492 1.30429,0.02972 2.49349,0.06351 3.58634,0.103353 1.09286,0.03984 2.08942,0.0856 3.00654,0.138493 0.91714,0.05289 1.75504,0.113045 2.53214,0.181901 0.7771,0.06885 1.49346,0.146354 2.16628,0.234094 0.94393,0.123096 1.80253,0.266427 2.62568,0.433566 0.82314,0.167135 1.61073,0.357958 2.41174,0.577225 0.801,0.219268 1.61589,0.466717 2.49339,0.746208 0.87749,0.279493 1.81748,0.591155 2.8701,0.938961 0.63869,0.211036 1.27422,0.432721 1.90686,0.664559 0.63266,0.231838 1.26263,0.47388 1.88878,0.726054 0.62615,0.252172 1.24891,0.514475 1.8681,0.786515 0.61917,0.272042 1.23466,0.553986 1.8464,0.845426 0.61175,0.291443 1.21933,0.592414 1.82314,0.902788 0.60383,0.310372 1.20393,0.629759 1.79938,0.958598 0.59546,0.328837 1.1864,0.667056 1.77302,1.013891 0.58661,0.346836 1.16882,0.702236 1.74614,1.066602 0.5773,0.364366 1.15018,0.737883 1.71773,1.119311 0.56756,0.38143 1.12992,0.770898 1.68723,1.168921 0.55731,0.398023 1.10962,0.80438 1.65623,1.21853 0.54661,0.414156 1.0877,0.83625 1.62316,1.266073 0.53543,0.429802 1.06472,0.867063 1.58853,1.312065 0.52381,0.445 1.0417,0.897812 1.5534,1.357539 0.51171,0.459728 1.01754,0.926441 1.5167,1.400432 0.49915,0.473991 0.99184,0.955024 1.47795,1.442806 0.48611,0.48777 0.96553,0.982543 1.43815,1.48363 0.47262,0.501109 0.93816,1.008941 1.39682,1.522905 0.45865,0.513941 0.91072,1.033767 1.35495,1.560111 0.44422,0.526345 0.88066,1.059045 1.31,1.597319 0.42933,0.538252 0.85157,1.082237 1.26555,1.631936 0.41398,0.54974 0.81987,1.10535 1.21802,1.66605 0.39814,0.5607 0.78862,1.12636 1.17047,1.69757 0.38186,0.57122 0.75523,1.14782 1.12034,1.7291 0.3651,0.58127 0.72131,1.16718 1.06919,1.75803 0.34789,0.59085 0.68785,1.18649 1.01803,1.78645 0.33019,0.59998 0.65121,1.2047 0.96324,1.81333 0.31204,0.60861 0.61453,1.22133 0.90796,1.83813 0.29342,0.6168 0.57781,1.2374 0.85214,1.8619 0.27434,0.62451 0.53897,1.25289 0.79375,1.88464 0.25478,0.63176 0.49957,1.26728 0.73433,1.90583 0.23476,0.63852 0.45905,1.2801 0.67334,1.92494 0.38291,1.1523 0.73534,2.30716 1.0573,3.46336 0.32196,1.15623 0.61356,2.31373 0.8754,3.47214 0.26184,1.15842 0.49403,2.31739 0.6966,3.47627 0.20257,1.15886 0.37571,2.31764 0.51986,3.47524 0.14413,1.15761 0.25967,2.31444 0.34623,3.46904 0.0865,1.1546 0.14435,2.30728 0.17415,3.45715 0.0298,1.14988 0.0309,2.29669 0.005,3.4401 -0.026,1.14344 -0.0795,2.28315 -0.16071,3.4184 -0.0812,1.13525 -0.18967,2.26619 -0.32504,3.39152 -0.13536,1.12535 -0.29753,2.24525 -0.48628,3.35897 -0.18874,1.1137 -0.40417,2.2214 -0.64544,3.32176 -0.24126,1.10035 -0.50801,2.19359 -0.80098,3.27887 -0.29297,1.08526 -0.6122,2.16236 -0.95602,3.23081 -0.34381,1.06846 -0.71257,2.12819 -1.10639,3.1781 -0.39383,1.04991 -0.81224,2.09007 -1.25522,3.11971 -0.44299,1.02965 -0.91069,2.04851 -1.40198,3.05614 -0.49131,1.00765 -1.00635,2.00401 -1.54513,2.98794 -0.5388,0.98392 -1.1013,1.95556 -1.68672,2.91403 -0.58541,0.95847 -1.19399,1.90368 -1.82521,2.83497 -0.63122,0.93129 -1.28495,1.84886 -1.96112,2.75125 -0.67618,0.90239 -1.37467,1.78958 -2.09496,2.66134 -0.72028,0.87175 -1.46265,1.72789 -2.22622,2.56728 -0.76354,0.83939 -1.54789,1.66224 -2.35386,2.46755 -0.80598,0.80531 -1.63342,1.59317 -2.48099,2.36265 -0.84756,0.7695 -1.71567,1.52061 -2.60397,2.25258 -0.88829,0.73194 -1.79669,1.44465 -2.7249,2.13733 -0.9282,0.69269 -1.87596,1.36526 -2.84324,2.01693 -0.96727,0.6517 -1.95455,1.28241 -2.96003,1.89136 -1.00547,0.60895 -2.02931,1.1961 -3.07216,1.76062 -1.04285,0.5645 -2.1044,1.10637 -3.18378,1.6247 -1.07939,0.51834 -2.17672,1.01321 -3.29179,1.48363 -1.11507,0.47043 -2.24782,0.91659 -3.39773,1.33739 l -4.28914,1.56941 -0.14676,36.42982 -0.1478,36.4293 2.76624,-0.32711 c 0.624,-0.0739 1.34399,-0.18125 2.14044,-0.31678 0.79645,-0.13552 1.66885,-0.29946 2.59726,-0.48679 0.9284,-0.18733 1.91331,-0.3976 2.93315,-0.62683 1.01985,-0.22924 2.07528,-0.4772 3.14606,-0.73846 1.0708,-0.26127 2.15682,-0.53618 3.23805,-0.81959 1.08123,-0.2834 2.15741,-0.57559 3.20859,-0.87126 1.05118,-0.29568 2.07708,-0.59493 3.05769,-0.89297 0.98061,-0.29806 1.91582,-0.59466 2.78536,-0.88522 1.02051,-0.34099 2.03583,-0.69296 3.04581,-1.05575 1.00999,-0.36281 2.0151,-0.73645 3.01429,-1.12086 0.9992,-0.3844 1.99254,-0.77967 2.98069,-1.18546 0.98815,-0.40578 1.97129,-0.82206 2.94814,-1.24902 0.97686,-0.42698 1.94772,-0.86463 2.913,-1.31258 0.96529,-0.44794 1.9249,-0.90639 2.87838,-1.37511 0.95348,-0.46869 1.90081,-0.94736 2.84221,-1.4366 0.9414,-0.48927 1.87645,-0.98901 2.80551,-1.49862 0.92906,-0.50959 1.85235,-1.02936 2.76882,-1.55908 0.91648,-0.52973 1.82646,-1.06938 2.73007,-1.61902 0.90361,-0.54966 1.80081,-1.1091 2.69131,-1.67845 0.89051,-0.56936 1.77386,-1.14847 2.651,-1.73736 0.87714,-0.58886 1.7477,-1.1876 2.61121,-1.79576 0.86349,-0.60815 1.72027,-1.22587 2.56987,-1.85311 0.84961,-0.62726 1.69203,-1.26386 2.52749,-1.90996 0.83547,-0.64613 1.66354,-1.30202 2.4846,-1.96681 0.82105,-0.66479 1.63533,-1.33886 2.44172,-2.0221 0.80639,-0.68324 1.60529,-1.37539 2.39675,-2.07687 0.79148,-0.70149 1.5755,-1.41212 2.35179,-2.13166 0.77627,-0.71952 1.54498,-1.44804 2.3058,-2.18539 0.76084,-0.73735 1.51364,-1.48364 2.25878,-2.23863 0.74515,-0.75495 1.48258,-1.51845 2.21175,-2.29081 0.72919,-0.77239 1.45074,-1.55345 2.1637,-2.34301 0.71295,-0.78958 1.41707,-1.58761 2.11356,-2.39417 0.69648,-0.80656 1.38473,-1.62146 2.06447,-2.44481 0.67974,-0.82334 1.35107,-1.65502 2.01384,-2.49494 0.66274,-0.83992 1.31716,-1.68829 1.96267,-2.54455 0.64549,-0.85627 1.28197,-1.7207 1.90996,-2.59312 0.628,-0.87241 1.24756,-1.75284 1.85777,-2.64119 0.6102,-0.88835 1.2113,-1.78462 1.8035,-2.68872 0.59218,-0.90409 1.17534,-1.81613 1.74925,-2.73575 0.5739,-0.91959 1.1386,-1.84683 1.69395,-2.78174 0.86528,-1.45669 1.70214,-2.92593 2.51044,-4.40645 0.8083,-1.48052 1.58804,-2.97247 2.3394,-4.47518 0.75135,-1.50272 1.47388,-3.01598 2.16834,-4.53926 0.69445,-1.52326 1.36074,-3.05648 1.99833,-4.59868 0.63759,-1.5422 1.24701,-3.09345 1.82779,-4.65295 0.58078,-1.55951 1.13327,-3.12736 1.65727,-4.70256 0.52399,-1.57516 1.01946,-3.15777 1.48673,-4.74699 0.46726,-1.58924 0.90614,-3.18513 1.31671,-4.78679 0.41057,-1.60165 0.79279,-3.20898 1.1467,-4.82141 0.35393,-1.61245 0.67939,-3.22979 0.97669,-4.85139 0.29731,-1.62157 0.56645,-3.2476 0.80718,-4.8767 0.24073,-1.62912 0.45297,-3.26132 0.63717,-4.89634 0.1842,-1.635 0.33995,-3.27258 0.46767,-4.91185 0.12771,-1.63927 0.22742,-3.28027 0.29869,-4.92218 0.0713,-1.64191 0.11434,-3.28494 0.1292,-4.92786 0.0148,-1.64291 0.002,-3.28558 -0.0398,-4.92787 -0.0415,-1.64227 -0.11145,-3.28422 -0.20928,-4.92424 -0.0978,-1.64004 -0.22364,-3.27827 -0.37776,-4.91443 -0.15411,-1.63615 -0.33638,-3.26985 -0.54674,-4.90048 -0.21035,-1.63063 -0.44917,-3.25838 -0.71571,-4.88187 -0.26656,-1.62348 -0.56095,-3.24289 -0.88367,-4.85759 -0.32271,-1.61471 -0.67329,-3.22484 -1.05213,-4.82916 -0.37884,-1.6043 -0.78569,-3.20282 -1.2206,-4.79505 -0.43492,-1.59228 -0.89811,-3.17822 -1.38906,-4.75682 -0.49094,-1.578595 -1.01009,-3.150109 -1.55701,-4.713405 -0.54695,-1.563308 -1.12155,-3.118444 -1.72445,-4.664832 -0.6029,-1.546375 -1.23359,-3.083784 -1.89239,-4.611605 -0.65881,-1.527823 -1.34616,-3.046091 -2.06085,-4.553727 -0.71466,-1.507634 -1.45674,-3.004862 -2.22726,-4.490682 -0.77049,-1.48582 -1.56888,-2.960096 -2.3952,-4.422469 -0.82628,-1.462373 -1.68059,-2.912825 -2.56264,-4.350122 -0.88203,-1.437297 -1.79231,-2.8615 -2.73006,-4.272091 -0.76193,-1.146115 -1.53745,-2.279179 -2.32751,-3.398759 -0.79007,-1.119581 -1.59415,-2.225455 -2.41174,-3.318143 -0.81759,-1.092687 -1.64888,-2.172092 -2.49338,-3.237529 -0.84453,-1.065435 -1.70265,-2.11702 -2.57349,-3.154846 -0.87085,-1.037826 -1.75441,-2.061788 -2.651,-3.071647 -0.89656,-1.009856 -1.80631,-2.005884 -2.728,-2.987415 -0.92168,-0.981531 -1.8557,-1.948785 -2.8019,-2.901631 -0.9462,-0.952848 -1.90412,-1.891012 -2.87424,-2.814816 -0.97014,-0.923803 -1.95212,-1.83308 -2.94556,-2.727482 -0.99344,-0.894402 -1.99812,-1.773955 -3.01428,-2.638598 -1.01616,-0.864645 -2.04371,-1.714673 -3.08199,-2.549199 -1.03826,-0.834525 -2.08783,-1.653681 -3.14761,-2.457731 -1.05979,-0.804049 -2.12996,-1.593049 -3.21065,-2.366264 -1.08069,-0.773214 -2.17217,-1.530708 -3.27319,-2.272729 -1.101,-0.742024 -2.21188,-1.468206 -3.33261,-2.178679 -1.12071,-0.710469 -2.25119,-1.405033 -3.39101,-2.083593 -1.13981,-0.678565 -2.28903,-1.341181 -3.44733,-1.987476 -1.15832,-0.646295 -2.32536,-1.276653 -3.5016,-1.890324 -1.17622,-0.613668 -2.3613,-1.210936 -3.55482,-1.791622 -1.19353,-0.580686 -2.39525,-1.144544 -3.60547,-1.691886 -1.2102,-0.547344 -2.42927,-1.077992 -3.65559,-1.591634 -1.22631,-0.513646 -2.46028,-1.010247 -3.7021,-1.4898318 -1.2418,-0.4795845 -2.49137,-0.9423454 -3.74809,-1.3875122 -1.25671,-0.4451679 -2.5205,-0.8727339 -3.7915,-1.2831258 -1.271,-0.4103931 -2.54919,-0.8034815 -3.83387,-1.1787395 -1.28469,-0.3752589 -2.57591,-0.7330371 -3.87367,-1.0728027 -1.29778,-0.3397667 -2.60216,-0.6613997 -3.91242,-0.9653158 -1.31026,-0.3039173 -2.62645,-0.5901202 -3.9486,-0.8578287 -1.32214,-0.2677086 -2.65031,-0.5171321 -3.98373,-0.7482748 -1.33343,-0.2311415 -2.67218,-0.4439875 -4.0163,-0.6382039 -1.3441,-0.1942165 -2.69308,-0.3696498 -4.04729,-0.5265829 -1.35418,-0.15693312 -2.7136,-0.29515334 -4.07727,-0.41444494 -0.47178,-0.0412742 -1.13654,-0.0818603 -1.97043,-0.12092285 -0.83391,-0.0390583 -1.8368,-0.076632 -2.98379,-0.11265463 -2.29398,-0.0720495 -5.16514,-0.13730419 -8.41706,-0.19223632 -3.25193,-0.0549354 -6.88477,-0.09955505 -10.70219,-0.13074138 -3.81741,-0.03118418 -7.81969,-0.0488026 -11.81013,-0.04960937 z" /><path
     id="path747"
     style="display:inline;fill:#e6e6e6;stroke-width:0.264581;fill-opacity:1"
     d="M -39.188822 0 L -39.188822 285.75 L -0.28628743 285.75 L 71.580127 285.75 L 124.72985 285.75 L 124.72985 214.3125 L 71.580127 214.3125 L 71.580127 0 L 0.41651204 0 L -39.188822 0 z " /></svg>
