<?xml version="1.0" standalone="no"?><svg xmlns="http://www.w3.org/2000/svg" viewBox="0 0 1440 320"><path fill="#2B1D93" fill-opacity="1" d="M0,224L40,224C80,224,160,224,240,192C320,160,400,96,480,112C560,128,640,224,720,234.7C800,245,880,171,960,165.3C1040,160,1120,224,1200,256C1280,288,1360,288,1400,288L1440,288L1440,320L1400,320C1360,320,1280,320,1200,320C1120,320,1040,320,960,320C880,320,800,320,720,320C640,320,560,320,480,320C400,320,320,320,240,320C160,320,80,320,40,320L0,320Z"></path></svg>